# xmcd CD database file
# Copyright (C) 1993-1998 Ti Kan
# 
# Track frame offsets:
#     183
#     12348
#     28213
#     44933
#     63693
#     84995
#     97918
#     134115
#     158935
#     189828
#     216518
#     255838
#     273040
#     317953
# 
# Disc length: 4473 seconds
# 
# Revision: 2
# Processed by: cddbd v1.4PL0 Copyright (c) Steve Scherf et al.
# Submitted via: Gronk 1.4
# 
DISCID=ca11770e
DTITLE=Toon Hermans - Toon Hermans 2 [CD1]
DYEAR=1900
DGENRE=blues
TTITLE0=Ik krijg 'n kick als ik je zie
TTITLE1=Het hollandse handje
TTITLE2=Wist U dat ik studeer
TTITLE3=Moe
TTITLE4=Wei
TTITLE5=Stiletto
TTITLE6=Cholesterol
TTITLE7=Refreintjes van toen
TTITLE8=Familie
TTITLE9=Zomeravond concert
TTITLE10=Strinzelthal
TTITLE11=Oh, Carolien !
TTITLE12=Vakantie in Frankrijk
TTITLE13=Il pleut
EXTD=
EXTT0=
EXTT1=
EXTT2=
EXTT3=
EXTT4=
EXTT5=
EXTT6=
EXTT7=
EXTT8=
EXTT9=
EXTT10=
EXTT11=
EXTT12=
EXTT13=
PLAYORDER=
